<svg xmlns="http://www.w3.org/2000/svg" width="32" height="32" viewBox="0 0 32 32">
  <g id="Group_17583" data-name="Group 17583" transform="translate(17313 -18594)">
    <rect id="Rectangle_3133" data-name="Rectangle 3133" width="32" height="32" rx="3" transform="translate(-17313 18594)" fill="#e8464d"/>
    <g id="Group_4" data-name="Group 4" transform="translate(-17311 18607)">
      <g id="Group_3" data-name="Group 3">
        <path id="Path_9" data-name="Path 9" d="M333.983,320.891a1.476,1.476,0,0,0-1.6-1.2c-1.151,0-1.908.809-1.908,2.226,0,1.457.767,2.226,1.9,2.226a1.5,1.5,0,0,0,1.613-1.148l1.592.006a3.008,3.008,0,0,1-3.231,2.416,3.5,3.5,0,0,1,0-7,2.949,2.949,0,0,1,3.231,2.479Z" transform="translate(-328.877 -318.412)" fill="#fff"/>
        <path id="Path_10" data-name="Path 10" d="M349.676,327.127c0-1.141.992-1.481,2.1-1.574.971-.086,1.352-.129,1.352-.459v-.02c0-.42-.3-.662-.829-.662a.936.936,0,0,0-.992.589l-1.432-.107c.215-.931,1.094-1.517,2.432-1.517,1.243,0,2.369.513,2.369,1.73v3.448H353.2v-.709h-.044a1.751,1.751,0,0,1-1.631.805C350.465,328.651,349.676,328.138,349.676,327.127Zm3.46-.4v-.542a4.008,4.008,0,0,1-1.076.23c-.545.07-.9.266-.9.665s.341.592.818.592A1.04,1.04,0,0,0,353.136,326.728Z" transform="translate(-342.54 -321.647)" fill="#fff"/>
        <path id="Path_11" data-name="Path 11" d="M366.572,323.431h1.5v.892h.058a1.337,1.337,0,0,1,1.341-.965,1.571,1.571,0,0,1,.763.186l-.465,1.171a1.233,1.233,0,0,0-.527-.12,1.063,1.063,0,0,0-1.122,1.055v2.891h-1.549Z" transform="translate(-353.639 -321.635)" fill="#fff"/>
        <path id="Path_12" data-name="Path 12" d="M376.981,329.153l1.432-.176a1.162,1.162,0,0,0,1.156.549c.673,0,1.163-.272,1.163-.942v-.935h-.065a1.643,1.643,0,0,1-1.592.832,2.2,2.2,0,0,1-2.264-2.492c0-1.741,1.036-2.612,2.261-2.612a1.663,1.663,0,0,1,1.6.925h.058v-.858h1.538V328.6c0,1.274-1.134,1.94-2.729,1.94C378.028,330.544,377.166,329.925,376.981,329.153Zm3.758-3.171c0-.895-.421-1.477-1.174-1.477s-1.174.609-1.174,1.477.414,1.434,1.174,1.434S380.738,326.884,380.738,325.982Z" transform="translate(-360.364 -321.647)" fill="#fff"/>
        <path id="Path_13" data-name="Path 13" d="M394.47,326.019a2.75,2.75,0,1,1,2.748,2.635A2.525,2.525,0,0,1,394.47,326.019Zm3.922-.01c0-.891-.4-1.55-1.167-1.55s-1.181.659-1.181,1.55.4,1.547,1.181,1.547S398.392,326.9,398.392,326.009Z" transform="translate(-371.965 -321.647)" fill="#fff"/>
      </g>
    </g>
  </g>
</svg>
