<svg xmlns="http://www.w3.org/2000/svg" width="32" height="32" viewBox="0 0 32 32">
  <g id="Group_3387" data-name="Group 3387" transform="translate(6206 -7558)">
    <rect id="Rectangle_3133" data-name="Rectangle 3133" width="32" height="32" transform="translate(-6206 7558)" fill="none"/>
    <g id="Group_4" data-name="Group 4" transform="translate(-6206 7570)">
      <g id="Group_3" data-name="Group 3">
        <path id="Path_9" data-name="Path 9" d="M334.712,321.245a1.687,1.687,0,0,0-1.831-1.377c-1.316,0-2.181.924-2.181,2.544,0,1.666.877,2.544,2.168,2.544a1.712,1.712,0,0,0,1.844-1.312l1.82.007a3.438,3.438,0,0,1-3.693,2.761,4,4,0,0,1,0-8c1.969,0,3.456,1.034,3.693,2.833Z" transform="translate(-328.877 -318.412)" fill="#e8464d"/>
        <path id="Path_10" data-name="Path 10" d="M349.676,327.663c0-1.3,1.134-1.693,2.4-1.8,1.109-.1,1.545-.148,1.545-.524v-.023c0-.479-.345-.757-.947-.757a1.07,1.07,0,0,0-1.134.673l-1.636-.122c.246-1.064,1.251-1.734,2.779-1.734,1.42,0,2.708.586,2.708,1.977v3.94h-1.678v-.81h-.05a2,2,0,0,1-1.865.92C350.577,329.4,349.676,328.818,349.676,327.663Zm3.954-.456v-.62a4.574,4.574,0,0,1-1.23.262c-.623.08-1.034.3-1.034.76s.39.677.935.677A1.188,1.188,0,0,0,353.63,327.206Z" transform="translate(-341.52 -321.4)" fill="#e8464d"/>
        <path id="Path_11" data-name="Path 11" d="M366.572,323.442h1.716v1.019h.066a1.529,1.529,0,0,1,1.532-1.1,1.8,1.8,0,0,1,.872.213l-.532,1.338a1.41,1.41,0,0,0-.6-.137,1.214,1.214,0,0,0-1.283,1.206v3.3h-1.77Z" transform="translate(-351.791 -321.388)" fill="#e8464d"/>
        <path id="Path_12" data-name="Path 12" d="M377.005,329.978l1.636-.2a1.328,1.328,0,0,0,1.321.627c.769,0,1.329-.311,1.329-1.076V328.26h-.075a1.878,1.878,0,0,1-1.82.951,2.516,2.516,0,0,1-2.587-2.848c0-1.989,1.184-2.986,2.584-2.986a1.9,1.9,0,0,1,1.823,1.057h.066v-.981h1.757v5.9c0,1.456-1.3,2.217-3.119,2.217C378.2,331.568,377.217,330.86,377.005,329.978Zm4.295-3.624c0-1.023-.481-1.688-1.342-1.688-.876,0-1.341.7-1.341,1.688,0,1.008.473,1.639,1.341,1.639C380.81,327.993,381.3,327.385,381.3,326.354Z" transform="translate(-358.015 -321.4)" fill="#e8464d"/>
        <path id="Path_13" data-name="Path 13" d="M394.47,326.4a3.143,3.143,0,1,1,3.14,3.012A2.886,2.886,0,0,1,394.47,326.4Zm4.482-.011c0-1.019-.457-1.772-1.334-1.772-.893,0-1.35.753-1.35,1.772s.457,1.769,1.35,1.769C398.5,328.153,398.952,327.4,398.952,326.385Z" transform="translate(-368.75 -321.4)" fill="#e8464d"/>
      </g>
    </g>
  </g>
</svg>
